<?xml version="1.0" encoding="UTF-8"?>
<svg xmlns="http://www.w3.org/2000/svg" id="Layer_1" data-name="Layer 1" viewBox="0 0 24 24">
  <path d="M21.197,7.189c-.447-2.783-2.416-5.008-5.015-5.669-1.342-.341-2.749-.516-4.185-.521-1.431,.004-2.837,.179-4.179,.521-2.599,.661-4.568,2.886-5.015,5.669-.654,4.07-.579,8.38,.23,13.176,.209,1.244,1.097,2.218,2.32,2.531,1.445,.37,2.644-.314,3.256-1.078,.633-.79,3.049-3.868,3.049-3.868,.114-.145,.264-.167,.342-.167s.228,.021,.342,.167c0,0,2.417,3.079,3.049,3.868,.788,.982,2.035,1.396,3.256,1.078,1.221-.317,2.11-1.287,2.319-2.53,.809-4.796,.885-9.106,.23-13.176Z"/>
</svg>
